<?xml version="1.0" encoding="UTF-8"?>
<svg width="283px" height="299px" viewBox="0 0 283 299" version="1.1" xmlns="http://www.w3.org/2000/svg" xmlns:xlink="http://www.w3.org/1999/xlink">
    <!-- Generator: Sketch 46.2 (44496) - http://www.bohemiancoding.com/sketch -->
    <title>cup</title>
    <desc>Created with Sketch.</desc>
    <defs></defs>
    <g id="Page-1" stroke="none" stroke-width="1" fill="none" fill-rule="evenodd">
        <g id="cup" transform="translate(1.000000, 1.000000)" stroke="#979797" stroke-width="0.5" fill="#FFFFFF" fill-rule="nonzero">
            <path d="M238.348,16.308 C229.991,16.308 222.196,18.744 215.616,22.926 L215.616,9.884 C215.616,4.426 211.19,0 205.732,0 L75.27,0 C69.812,0 65.386,4.426 65.386,9.884 L65.386,22.926 C58.807,18.743 51.012,16.308 42.655,16.308 C19.22,16.308 0.155,35.373 0.155,58.807 C0.155,82.241 19.22,101.307 42.655,101.307 L58.963,101.307 C62.505,101.307 65.387,104.189 65.387,107.731 C65.387,111.273 62.505,114.155 58.963,114.155 C53.505,114.155 49.079,118.581 49.079,124.039 C49.079,129.497 53.505,133.923 58.963,133.923 C63.691,133.923 68.125,132.657 71.958,130.458 C75.532,140.335 80.5,149.271 86.761,156.839 C94.459,166.145 103.766,173.12 114.072,177.495 C113.626,183.053 112.345,192.904 108.666,202.525 C102.031,219.876 91.107,228.31 75.27,228.31 L58.962,228.31 C53.504,228.31 49.078,232.735 49.078,238.194 L49.078,287.117 C49.078,292.575 53.504,297.001 58.962,297.001 L222.04,297.001 C227.498,297.001 231.924,292.575 231.924,287.117 L231.924,238.194 C231.924,232.735 227.498,228.31 222.04,228.31 L205.732,228.31 C189.895,228.31 178.971,219.875 172.337,202.525 C168.657,192.903 167.378,183.052 166.932,177.495 C177.239,173.12 186.544,166.145 194.242,156.839 C200.504,149.272 205.472,140.335 209.046,130.458 C212.879,132.657 217.314,133.923 222.041,133.923 C227.499,133.923 231.925,129.497 231.925,124.039 C231.925,118.581 227.499,114.155 222.041,114.155 C218.499,114.155 215.617,111.273 215.617,107.731 C215.617,104.189 218.499,101.307 222.041,101.307 L238.349,101.307 C261.783,101.307 280.847,82.241 280.847,58.807 C280.847,35.373 261.781,16.308 238.348,16.308 Z M58.962,81.539 L42.654,81.539 C30.119,81.539 19.921,71.342 19.921,58.806 C19.921,46.272 30.119,36.075 42.654,36.075 C55.188,36.075 65.385,46.272 65.385,58.806 L65.385,82.337 C63.329,81.818 61.178,81.539 58.962,81.539 Z M212.156,248.076 L212.156,277.232 L68.846,277.232 L68.846,248.076 L212.156,248.076 L212.156,248.076 Z M153.67,209.048 C156.455,216.476 160.028,222.917 164.303,228.31 L116.699,228.31 C120.973,222.917 124.547,216.476 127.332,209.048 C131.035,199.172 132.704,189.368 133.457,182.471 C135.78,182.71 138.129,182.846 140.501,182.846 C142.873,182.846 145.222,182.71 147.545,182.471 C148.298,189.368 149.967,199.172 153.67,209.048 Z M140.501,163.078 C108.431,163.078 85.153,132.943 85.153,91.423 L85.153,19.768 L195.848,19.768 L195.848,91.423 C195.849,132.943 172.571,163.078 140.501,163.078 Z M238.348,81.539 L222.04,81.539 C219.824,81.539 217.673,81.818 215.616,82.338 L215.616,58.807 C215.616,46.273 225.813,36.076 238.348,36.076 C250.882,36.076 261.079,46.273 261.079,58.807 C261.079,71.342 250.882,81.539 238.348,81.539 Z" id="Shape"></path>
        </g>
    </g>
</svg>